<svg width="1410" height="442" viewBox="0 0 1410 442" fill="none" xmlns="http://www.w3.org/2000/svg">
    <path d="M296.488 381.599L500.201 379.004L499.85 351.466L296.137 354.062L296.488 381.599Z" fill="#455A64"/>
    <g opacity="0.4">
        <path opacity="0.4" d="M296.488 381.599L500.201 379.004L499.85 351.466L296.137 354.062L296.488 381.599Z" fill="black"/>
    </g>
    <path d="M287.56 351.85C288.594 348.905 290.425 346.304 292.849 344.337C295.273 342.37 298.195 341.115 301.29 340.71L346.96 334.71L363.5 322.58C374.998 314.149 388.843 309.52 403.1 309.34L492.43 308.21L511.57 307.96C511.841 307.956 512.111 308.007 512.362 308.11C512.613 308.213 512.84 308.366 513.03 308.56C513.236 308.779 513.387 309.044 513.469 309.333C513.551 309.622 513.562 309.927 513.501 310.221C513.44 310.516 513.309 310.791 513.119 311.024C512.929 311.257 512.686 311.441 512.41 311.56L504.63 315.01C504.931 315.503 505.202 316.014 505.44 316.54L510 326.8C511.111 329.284 511.7 331.969 511.73 334.69C512.316 334.677 512.898 334.779 513.445 334.991C513.991 335.203 514.49 335.52 514.913 335.925C515.337 336.33 515.676 336.814 515.913 337.351C516.149 337.887 516.277 338.464 516.29 339.05L516.52 356.89L521.18 358.89C522.277 359.366 523.214 360.148 523.878 361.143C524.541 362.138 524.903 363.304 524.92 364.5L524.98 369.13C524.999 370.878 524.412 372.579 523.318 373.943C522.224 375.307 520.691 376.249 518.98 376.61L494.49 381.8V379.58C494.451 376.469 493.799 373.395 492.571 370.536C491.344 367.677 489.565 365.087 487.336 362.916C485.107 360.744 482.472 359.034 479.581 357.881C476.691 356.729 473.601 356.158 470.49 356.2C467.379 356.24 464.306 356.893 461.448 358.121C458.589 359.349 456 361.129 453.829 363.357C451.658 365.586 449.947 368.22 448.794 371.11C447.641 374 447.069 377.089 447.11 380.2V382.41L348.52 383.67V381.45C348.438 375.166 345.864 369.172 341.363 364.785C336.863 360.399 330.804 357.98 324.52 358.06C318.236 358.142 312.242 360.716 307.855 365.217C303.469 369.717 301.05 375.776 301.13 382.06V384.28L289.03 384.43C288.252 384.442 287.48 384.3 286.757 384.013C286.034 383.726 285.375 383.298 284.817 382.756C284.26 382.213 283.815 381.566 283.508 380.851C283.202 380.136 283.039 379.368 283.03 378.59L282.96 373.36C282.891 367.873 283.788 362.416 285.61 357.24L287.56 351.85Z" fill="#263238"/>
    <path d="M505.45 316.57L510 326.8C511.111 329.284 511.7 331.969 511.73 334.69L505.63 334.76L499.44 317.39L504.64 315.09C504.94 315.566 505.21 316.061 505.45 316.57Z" fill="#455A64"/>
    <path d="M515.94 350.87H512.58C510.66 350.893 508.779 350.327 507.19 349.25L501.54 345.44C501.049 345.107 500.646 344.66 500.366 344.138C500.086 343.616 499.936 343.033 499.93 342.44C499.938 341.48 500.321 340.562 500.998 339.882C501.674 339.201 502.591 338.813 503.55 338.8L515.77 338.65C515.841 338.649 515.911 338.661 515.977 338.687C516.043 338.713 516.104 338.752 516.155 338.801C516.206 338.85 516.247 338.909 516.275 338.974C516.303 339.039 516.319 339.109 516.32 339.18L516.47 350.33C516.473 350.401 516.461 350.471 516.435 350.538C516.41 350.604 516.371 350.664 516.322 350.714C516.272 350.765 516.212 350.805 516.147 350.832C516.081 350.858 516.011 350.871 515.94 350.87Z" fill="#EBEBEB"/>
    <path d="M491.189 383.782C491.531 372.383 482.567 362.865 471.168 362.523C459.769 362.181 450.251 371.145 449.909 382.544C449.567 393.943 458.531 403.461 469.93 403.803C481.329 404.145 490.847 395.182 491.189 383.782Z" fill="#263238"/>
    <path d="M490.89 380.3C490.964 383.01 490.503 385.708 489.534 388.239C488.565 390.771 487.106 393.087 485.242 395.055C483.378 397.023 481.144 398.605 478.669 399.71C476.194 400.815 473.525 401.422 470.815 401.495C465.342 401.644 460.035 399.612 456.06 395.847C452.085 392.082 449.769 386.893 449.62 381.42L490.89 380.3Z" fill="#263238"/>
    <path d="M484.74 380.52C484.816 383.384 484.041 386.207 482.513 388.631C480.985 391.055 478.773 392.972 476.156 394.139C473.539 395.306 470.635 395.67 467.81 395.187C464.986 394.703 462.368 393.393 460.289 391.423C458.209 389.452 456.76 386.908 456.125 384.114C455.49 381.32 455.698 378.4 456.723 375.724C457.747 373.048 459.542 370.736 461.88 369.08C464.219 367.424 466.996 366.498 469.86 366.42C471.763 366.368 473.658 366.692 475.436 367.372C477.213 368.053 478.84 369.077 480.222 370.387C481.604 371.696 482.714 373.265 483.489 375.004C484.264 376.742 484.69 378.617 484.74 380.52Z" fill="#FAFAFA"/>
    <path d="M469.86 366.42C473.703 366.318 477.429 367.746 480.219 370.39C483.009 373.034 484.635 376.677 484.74 380.52L455.74 381.31C455.687 379.404 456.01 377.507 456.691 375.727C457.373 373.946 458.398 372.318 459.71 370.935C461.022 369.552 462.594 368.441 464.335 367.666C466.077 366.891 467.954 366.468 469.86 366.42Z" fill="#E0E0E0"/>
    <path d="M479.08 380.67C479.129 382.416 478.659 384.138 477.729 385.617C476.799 387.096 475.451 388.266 473.856 388.978C472.261 389.691 470.491 389.915 468.769 389.621C467.047 389.327 465.45 388.529 464.182 387.328C462.913 386.127 462.03 384.576 461.643 382.873C461.256 381.169 461.383 379.389 462.008 377.758C462.633 376.127 463.728 374.717 465.154 373.708C466.58 372.699 468.274 372.136 470.02 372.09C472.359 372.028 474.626 372.897 476.325 374.506C478.024 376.114 479.015 378.331 479.08 380.67Z" fill="#263238"/>
    <path d="M345.105 384.616C345.218 373.217 336.07 363.884 324.671 363.77C313.272 363.656 303.939 372.804 303.825 384.203C303.711 395.602 312.859 404.936 324.258 405.05C335.657 405.164 344.991 396.015 345.105 384.616Z" fill="#263238"/>
    <path d="M345.37 382.15C345.451 384.865 344.996 387.569 344.03 390.108C343.064 392.646 341.607 394.969 339.741 396.943C337.876 398.917 335.639 400.504 333.159 401.612C330.679 402.72 328.005 403.327 325.29 403.4C319.816 403.548 314.508 401.515 310.532 397.75C306.556 393.984 304.239 388.794 304.09 383.32L345.37 382.15Z" fill="#263238"/>
    <path d="M339.22 382.37C339.272 384.272 338.949 386.166 338.269 387.943C337.589 389.721 336.565 391.346 335.257 392.728C333.949 394.11 332.381 395.221 330.643 395.996C328.906 396.772 327.032 397.198 325.13 397.25C321.294 397.347 317.577 395.917 314.795 393.275C312.012 390.634 310.392 386.995 310.29 383.16C310.237 381.257 310.559 379.362 311.238 377.584C311.918 375.805 312.941 374.178 314.25 372.795C315.558 371.413 317.126 370.301 318.864 369.525C320.603 368.748 322.477 368.322 324.38 368.27C328.216 368.179 331.931 369.611 334.713 372.254C337.495 374.897 339.115 378.535 339.22 382.37Z" fill="#FAFAFA"/>
    <path d="M324.34 368.27C328.183 368.168 331.909 369.596 334.699 372.24C337.489 374.884 339.115 378.527 339.22 382.37L310.22 383.16C310.167 381.255 310.49 379.357 311.171 377.577C311.853 375.797 312.878 374.168 314.19 372.785C315.502 371.402 317.074 370.291 318.815 369.516C320.557 368.741 322.434 368.318 324.34 368.27Z" fill="#E0E0E0"/>
    <path d="M333.56 382.52C333.625 384.86 332.757 387.13 331.148 388.831C329.539 390.532 327.32 391.524 324.98 391.59C323.82 391.622 322.666 391.425 321.582 391.01C320.499 390.596 319.507 389.972 318.665 389.174C317.823 388.377 317.146 387.421 316.673 386.361C316.2 385.302 315.941 384.16 315.91 383C315.848 380.659 316.718 378.39 318.329 376.691C319.94 374.992 322.16 374.003 324.5 373.94C325.658 373.908 326.812 374.105 327.894 374.518C328.976 374.932 329.967 375.556 330.808 376.352C331.649 377.149 332.325 378.104 332.798 379.162C333.27 380.221 333.529 381.361 333.56 382.52Z" fill="#263238"/>
    <path d="M346.97 334.8L363.51 322.67C368.272 319.184 373.465 316.33 378.96 314.18L384.46 314.11L351.35 336.72L346.97 334.8Z" fill="#455A64"/>
    <path d="M297.86 347.53L289.75 347.63C290.913 346.052 292.301 344.654 293.87 343.48C295.72 342.87 298.01 345.16 297.86 347.53Z" fill="#FAFAFA"/>
    <path d="M463.1 335.89L355.71 337.26L386.1 315.71C388.328 314.033 391.032 313.108 393.82 313.07L460.39 312.23C460.39 312.23 484.3 311.34 489.64 318.48L463.1 335.89Z" fill="#263238"/>
    <path d="M462.18 335.95L457.9 313.59L470.39 313.43C475.194 313.427 479.961 314.274 484.47 315.93L488.29 317.55C488.815 317.75 489.286 318.07 489.664 318.485C490.042 318.901 490.317 319.399 490.467 319.94C490.617 320.482 490.637 321.05 490.527 321.601C490.416 322.152 490.177 322.669 489.83 323.11L485.51 328.61C483.893 330.687 481.858 332.401 479.535 333.639C477.213 334.878 474.656 335.614 472.03 335.8C471.64 335.8 471.25 335.8 470.86 335.8L462.18 335.95ZM412.66 336.58L412.37 314.17L449.17 313.7L453.45 336.06L412.66 336.58ZM360.06 337.25L387.38 316.25C388.929 315.063 390.819 314.407 392.77 314.38L405.5 314.22L401.5 336.68L360.06 337.25Z" fill="#455A64"/>
    <path d="M406.39 377.44C406.395 377.407 406.395 377.373 406.39 377.34V377.02C406.39 376.74 406.39 376.34 406.39 375.83C406.39 374.77 406.34 373.27 406.31 371.43C406.22 367.7 406.09 362.57 405.95 356.91C405.87 354.07 405.8 351.37 405.73 348.91C405.73 347.68 405.66 346.52 405.63 345.42C405.577 344.42 405.601 343.417 405.7 342.42C405.862 340.964 406.177 339.53 406.64 338.14C406.8 337.64 406.94 337.27 407.04 337.01L407.16 336.72V336.62V336.71C407.16 336.78 407.08 336.87 407.03 337C406.98 337.13 406.76 337.62 406.59 338.11C406.102 339.499 405.766 340.938 405.59 342.4C405.48 343.396 405.45 344.399 405.5 345.4C405.5 346.49 405.5 347.66 405.58 348.89C405.64 351.34 405.71 354.05 405.79 356.89C405.95 362.55 406.09 367.68 406.2 371.41C406.26 373.26 406.31 374.76 406.34 375.81C406.34 376.32 406.34 376.72 406.34 377.01C406.34 377.13 406.34 377.24 406.34 377.32C406.349 377.363 406.366 377.403 406.39 377.44Z" fill="#455A64"/>
    <path d="M359.29 338.8L359.2 338.86L358.97 339.05L358.79 339.19L358.61 339.39C358.455 339.554 358.311 339.727 358.18 339.91C357.381 341.103 356.771 342.412 356.37 343.79C356.09 344.65 355.83 345.61 355.6 346.65C355.49 347.17 355.39 347.71 355.29 348.27C355.196 348.848 355.162 349.435 355.19 350.02C355.19 352.41 355.32 355.02 355.43 357.79C355.64 363.3 355.87 368.29 356.05 371.9C356.14 373.69 356.22 375.15 356.27 376.17C356.27 376.66 356.27 377.05 356.34 377.33V377.63C356.34 377.7 356.34 377.73 356.34 377.73V377.33C356.34 377.05 356.34 376.66 356.34 376.17C356.34 375.17 356.25 373.68 356.18 371.89C356.03 368.27 355.83 363.29 355.61 357.78C355.51 355.03 355.4 352.4 355.36 350.02C355.327 349.441 355.361 348.861 355.46 348.29C355.55 347.74 355.64 347.2 355.76 346.68C355.98 345.68 356.23 344.68 356.49 343.83C356.874 342.459 357.464 341.154 358.24 339.96C358.545 339.535 358.897 339.145 359.29 338.8Z" fill="#263238"/>
    <path d="M355.73 338.14C355.725 337.486 355.892 336.842 356.215 336.273C356.538 335.704 357.006 335.23 357.57 334.9L362.38 332.12C363.745 331.327 365.292 330.9 366.87 330.88C367.846 330.872 368.817 331.014 369.75 331.3C370.762 331.636 371.648 332.273 372.289 333.125C372.93 333.977 373.297 335.004 373.34 336.07C373.376 336.786 373.268 337.503 373.021 338.176C372.774 338.85 372.393 339.466 371.902 339.989C371.411 340.512 370.819 340.931 370.162 341.219C369.506 341.508 368.797 341.661 368.08 341.67L359.47 341.78C358.985 341.787 358.504 341.698 358.054 341.518C357.604 341.339 357.193 341.073 356.846 340.735C356.499 340.397 356.221 339.993 356.03 339.548C355.838 339.103 355.737 338.625 355.73 338.14Z" fill="#263238"/>
    <path d="M355.73 338.14C355.764 338.295 355.787 338.452 355.8 338.61C355.865 339.051 356.014 339.475 356.24 339.86C356.593 340.472 357.114 340.972 357.74 341.3C358.129 341.505 358.553 341.634 358.99 341.68C359.483 341.705 359.977 341.705 360.47 341.68L367.85 341.56C368.533 341.563 369.211 341.441 369.85 341.2C370.526 340.932 371.142 340.53 371.66 340.02C372.191 339.483 372.6 338.839 372.86 338.13C373.12 337.4 373.222 336.623 373.16 335.85C373.091 335.086 372.856 334.346 372.471 333.683C372.086 333.019 371.56 332.448 370.93 332.01C370.323 331.612 369.643 331.337 368.93 331.2C368.245 331.043 367.543 330.969 366.84 330.98C365.536 330.99 364.25 331.283 363.07 331.84C362.51 332.09 362.01 332.41 361.51 332.69L360.08 333.51L357.62 334.91C357.003 335.258 356.494 335.77 356.15 336.39C355.941 336.786 355.802 337.216 355.74 337.66C355.748 337.816 355.748 337.973 355.74 338.13C355.725 337.974 355.725 337.816 355.74 337.66C355.779 337.202 355.908 336.757 356.12 336.35C356.446 335.699 356.958 335.16 357.59 334.8L360.04 333.36L361.46 332.53C361.96 332.25 362.46 331.92 363.03 331.66C364.233 331.084 365.547 330.777 366.88 330.76C367.599 330.75 368.318 330.824 369.02 330.98C369.762 331.119 370.47 331.404 371.1 331.82C371.759 332.274 372.309 332.868 372.712 333.56C373.114 334.251 373.36 335.023 373.43 335.82C373.504 336.626 373.398 337.439 373.12 338.2C372.853 338.952 372.423 339.635 371.86 340.2C371.325 340.74 370.681 341.16 369.97 341.43C369.292 341.684 368.574 341.809 367.85 341.8L360.47 341.87C359.97 341.895 359.47 341.895 358.97 341.87C358.518 341.814 358.081 341.675 357.68 341.46C357.039 341.117 356.512 340.596 356.16 339.96C355.94 339.557 355.801 339.116 355.75 338.66C355.73 338.487 355.723 338.314 355.73 338.14Z" fill="#455A64"/>
    <path d="M369.02 332.89C368.887 332.753 368.747 332.623 368.6 332.5C368.185 332.184 367.689 331.99 367.17 331.94C366.393 331.886 365.612 331.981 364.87 332.22C363.945 332.48 363.042 332.815 362.17 333.22C360.58 333.936 359.104 334.883 357.79 336.03C356.79 336.9 356.24 337.54 356.21 337.51C356.317 337.347 356.438 337.193 356.57 337.05C356.915 336.647 357.286 336.266 357.68 335.91C358.982 334.716 360.467 333.74 362.08 333.02C362.963 332.621 363.88 332.303 364.82 332.07C365.587 331.836 366.392 331.754 367.19 331.83C367.732 331.901 368.243 332.126 368.66 332.48C368.769 332.578 368.867 332.689 368.95 332.81C369 332.8 369.03 332.89 369.02 332.89Z" fill="white"/>
    <path d="M440.2 381.93C440.2 381.93 440.2 381.84 440.2 381.67C440.2 381.5 440.2 381.25 440.2 380.93C440.2 380.61 440.13 380.2 440.12 379.72C440.11 379.24 440.12 378.72 440.12 378.06C440.12 377.4 440.22 376.75 440.27 375.99C440.27 375.61 440.38 375.22 440.44 374.82C440.5 374.42 440.55 373.99 440.65 373.55C441.047 371.584 441.627 369.659 442.38 367.8C443.339 365.568 444.558 363.457 446.01 361.51C447.678 359.279 449.655 357.296 451.88 355.62C454.344 353.764 457.098 352.328 460.03 351.37C463.179 350.359 466.463 349.83 469.77 349.8C473.081 349.788 476.377 350.264 479.55 351.21C482.504 352.115 485.302 353.463 487.85 355.21C490.166 356.765 492.275 358.606 494.13 360.69C495.749 362.503 497.183 364.472 498.41 366.57C499.399 368.313 500.255 370.128 500.97 372C501.13 372.41 501.25 372.82 501.39 373.21C501.53 373.6 501.66 373.97 501.76 374.34C501.95 375.07 502.15 375.74 502.29 376.34L502.64 377.96C502.73 378.44 502.78 378.84 502.83 379.16C502.88 379.48 502.92 379.73 502.95 379.9C502.98 380.07 502.95 380.15 502.95 380.15C502.954 380.067 502.954 379.983 502.95 379.9L502.85 379.16C502.85 378.83 502.76 378.43 502.67 377.96C502.58 377.49 502.47 376.96 502.34 376.33C502.21 375.7 502.01 375.05 501.82 374.33C501.73 373.96 501.59 373.59 501.46 373.19C501.33 372.79 501.21 372.39 501.05 371.98C500.343 370.097 499.49 368.271 498.5 366.52C497.306 364.387 495.895 362.384 494.29 360.54C492.427 358.442 490.311 356.585 487.99 355.01C485.425 353.262 482.61 351.913 479.64 351.01C476.452 350.051 473.139 349.57 469.81 349.58C466.48 349.613 463.175 350.156 460.01 351.19C457.062 352.153 454.294 353.6 451.82 355.47C449.585 357.16 447.602 359.16 445.93 361.41C444.464 363.386 443.242 365.531 442.29 367.8C441.522 369.66 440.932 371.588 440.53 373.56C440.43 374 440.39 374.43 440.32 374.83C440.25 375.23 440.19 375.63 440.16 376.01C440.16 376.77 440.04 377.46 440.03 378.09C440.02 378.72 440.03 379.27 440.03 379.75C440.03 380.23 440.1 380.63 440.12 380.96C440.14 381.29 440.17 381.53 440.19 381.7L440.2 381.93Z" fill="#455A64"/>
    <path d="M460.93 351.01L461.03 350.86L461.29 350.44C461.52 350.06 461.83 349.51 462.2 348.83C462.645 348.028 463.048 347.203 463.41 346.36C463.514 346.111 463.594 345.854 463.65 345.59C463.685 345.445 463.685 345.295 463.65 345.15C463.65 345.01 463.57 344.88 463.53 344.75C463.34 344.21 463.13 343.67 462.9 343.12C461.99 340.92 461.07 338.97 460.41 337.56C460.08 336.86 459.8 336.29 459.61 335.9C459.52 335.72 459.44 335.58 459.38 335.45C459.32 335.32 459.29 335.3 459.29 335.3C459.29 335.3 459.29 335.36 459.35 335.47L459.54 335.93L460.29 337.62C460.92 339.04 461.82 341 462.73 343.19C462.957 343.743 463.167 344.283 463.36 344.81C463.462 345.046 463.51 345.303 463.5 345.56C463.451 345.813 463.378 346.061 463.28 346.3C462.9 347.3 462.47 348.07 462.12 348.77L461.26 350.4L461.03 350.85C460.95 350.95 460.92 351 460.93 351.01Z" fill="#455A64"/>
    <path d="M490.89 357.54C490.89 357.54 496.67 357.54 503.79 357.41C510.91 357.28 516.69 357.15 516.69 357.1C516.69 357.05 510.92 357.1 503.79 357.23C496.66 357.36 490.88 357.49 490.89 357.54Z" fill="#263238"/>
    <path d="M356.38 377.8C356.38 377.86 375.12 377.66 398.24 377.36C421.36 377.06 440.11 376.79 440.11 376.74C440.11 376.69 421.36 376.88 398.24 377.18C375.12 377.48 356.38 377.7 356.38 377.8Z" fill="#455A64"/>
    <path d="M283.08 378.91C283.08 378.91 285.95 378.97 289.49 378.91C293.03 378.85 295.9 378.79 295.9 378.74C295.9 378.69 293.03 378.68 289.49 378.74C285.95 378.8 283.08 378.86 283.08 378.91Z" fill="#263238"/>
    <path d="M298.5 344.87H298.64H299.04L300.59 344.73C301.93 344.6 303.86 344.4 306.25 344.13C311.04 343.59 317.64 342.76 324.9 341.65C332.16 340.54 338.7 339.36 343.43 338.45C345.79 337.99 347.7 337.6 349.02 337.33L350.53 337L350.93 336.91H351.06H350.92L350.53 336.98L349 337.27L343.4 338.34C338.67 339.22 332.13 340.34 324.87 341.48C317.61 342.62 311.02 343.48 306.24 344.02L300.58 344.67L299.04 344.85H298.64L298.5 344.87Z" fill="#455A64"/>
    <path d="M391.84 345.94H391.55C391.276 345.898 391.014 345.799 390.78 345.65C390.411 345.413 390.13 345.062 389.98 344.65C389.9 344.391 389.863 344.121 389.87 343.85C389.881 343.548 389.956 343.251 390.09 342.98C390.254 342.679 390.495 342.428 390.789 342.253C391.083 342.077 391.418 341.983 391.76 341.98H394.21L399.85 341.92C400.325 341.914 400.785 342.085 401.14 342.4C401.483 342.709 401.703 343.132 401.76 343.59C401.827 344.032 401.75 344.485 401.54 344.88C401.335 345.254 401.012 345.55 400.62 345.72C400.232 345.854 399.82 345.908 399.41 345.88H398.22H396.08L392.97 345.95H392.13H391.84H392.13H400.04C400.264 345.931 400.483 345.877 400.69 345.79C401.114 345.604 401.465 345.284 401.69 344.88C401.916 344.45 402.003 343.961 401.94 343.48C401.873 342.975 401.629 342.511 401.25 342.17C400.86 341.821 400.353 341.632 399.83 341.64L394.2 341.72H391.74C391.369 341.733 391.007 341.846 390.694 342.047C390.381 342.247 390.128 342.528 389.96 342.86C389.817 343.149 389.741 343.467 389.74 343.79C389.735 344.075 389.779 344.359 389.87 344.63C390.039 345.049 390.341 345.4 390.73 345.63C390.974 345.776 391.247 345.868 391.53 345.9C391.631 345.927 391.735 345.941 391.84 345.94Z" fill="#263238"/>
    <path d="M392.47 341.25C393.531 341.338 394.597 341.358 395.66 341.31C396.729 341.334 397.798 341.287 398.86 341.17C397.794 341.111 396.726 341.111 395.66 341.17C394.596 341.135 393.531 341.162 392.47 341.25Z" fill="white"/>
    <path d="M444.92 345.59C444.92 345.59 444.82 345.59 444.63 345.59C444.357 345.54 444.095 345.438 443.86 345.29C443.495 345.052 443.217 344.701 443.07 344.29C442.981 344.03 442.944 343.755 442.96 343.48C442.963 343.177 443.038 342.878 443.18 342.61C443.343 342.311 443.583 342.061 443.875 341.885C444.166 341.709 444.5 341.614 444.84 341.61H447.3L452.93 341.54C453.406 341.539 453.865 341.713 454.22 342.03C454.567 342.333 454.791 342.753 454.85 343.21C454.911 343.652 454.834 344.103 454.63 344.5C454.425 344.874 454.102 345.17 453.71 345.34C453.324 345.483 452.91 345.538 452.5 345.5H451.3H449.16L446.06 345.57H445.22H444.92C445.019 345.585 445.121 345.585 445.22 345.57H449.16H451.31H452.5C452.71 345.57 452.91 345.57 453.13 345.57C453.354 345.551 453.573 345.497 453.78 345.41C454.204 345.224 454.555 344.904 454.78 344.5C455.005 344.07 455.089 343.58 455.02 343.1C454.958 342.596 454.716 342.131 454.34 341.79C453.947 341.447 453.442 341.258 452.92 341.26L447.29 341.34H444.83C444.458 341.353 444.097 341.465 443.784 341.666C443.47 341.866 443.217 342.148 443.05 342.48C442.908 342.769 442.832 343.087 442.83 343.41C442.82 343.696 442.864 343.981 442.96 344.25C443.123 344.669 443.422 345.022 443.81 345.25C444.056 345.401 444.333 345.493 444.62 345.52C444.716 345.558 444.817 345.581 444.92 345.59Z" fill="#263238"/>
    <path d="M445.55 340.91C446.616 340.969 447.684 340.969 448.75 340.91C449.815 340.928 450.88 340.884 451.94 340.78C450.879 340.692 449.814 340.672 448.75 340.72C447.681 340.718 446.612 340.782 445.55 340.91Z" fill="white"/>
    <path d="M295.66 384.43V383.43C295.66 383.11 295.66 382.7 295.66 382.22C295.66 381.74 295.72 381.22 295.76 380.57C295.8 379.92 295.91 379.26 296 378.51C296 378.14 296.14 377.75 296.21 377.35C296.28 376.95 296.36 376.52 296.47 376.1C296.942 374.154 297.584 372.253 298.39 370.42C299.394 368.211 300.641 366.121 302.11 364.19C303.79 361.972 305.764 359.993 307.98 358.31C310.437 356.45 313.179 355.001 316.1 354.02C319.233 352.974 322.507 352.411 325.81 352.35C329.113 352.326 332.401 352.805 335.56 353.77C338.502 354.679 341.278 356.056 343.78 357.85C346.033 359.476 348.052 361.404 349.78 363.58C351.294 365.477 352.592 367.536 353.65 369.72C354.502 371.53 355.195 373.41 355.72 375.34C355.84 375.77 355.91 376.19 356.01 376.59C356.11 376.99 356.2 377.37 356.25 377.74C356.36 378.49 356.48 379.18 356.54 379.74C356.6 380.3 356.64 380.91 356.68 381.39C356.72 381.87 356.68 382.28 356.68 382.6V383.35C356.68 383.52 356.68 383.6 356.68 383.6C356.685 383.517 356.685 383.433 356.68 383.35V382.6C356.68 382.28 356.68 381.87 356.68 381.39C356.68 380.91 356.6 380.39 356.56 379.74C356.52 379.09 356.38 378.43 356.28 377.68C356.28 377.3 356.12 376.92 356.04 376.52C355.96 376.12 355.88 375.69 355.76 375.26C355.262 373.321 354.592 371.431 353.76 369.61C352.7 367.415 351.402 365.342 349.89 363.43C348.159 361.245 346.141 359.304 343.89 357.66C341.38 355.847 338.59 354.458 335.63 353.55C332.453 352.572 329.144 352.09 325.82 352.12C322.496 352.175 319.201 352.741 316.05 353.8C313.112 354.785 310.356 356.244 307.89 358.12C305.662 359.814 303.677 361.806 301.99 364.04C300.525 365.99 299.281 368.096 298.28 370.32C297.475 372.158 296.839 374.066 296.38 376.02C296.27 376.45 296.21 376.88 296.12 377.28C296.03 377.68 295.96 378.07 295.92 378.45C295.84 379.2 295.73 379.89 295.69 380.51C295.65 381.13 295.69 381.69 295.62 382.17C295.55 382.65 295.62 383.06 295.62 383.38V384.13C295.65 384.35 295.66 384.43 295.66 384.43Z" fill="#455A64"/>
    <path d="M451.47 312.34H452.11H453.93L460.62 312.26L482.69 311.91L494.84 311.69C498.57 311.62 501.94 311.6 504.76 311.4C506.99 311.269 509.209 310.985 511.4 310.55C512.18 310.39 512.77 310.25 513.17 310.14L513.63 310.01H513.78H513.63L513.16 310.11C512.76 310.21 512.16 310.34 511.39 310.49C509.196 310.894 506.978 311.158 504.75 311.28C501.94 311.46 498.57 311.46 494.84 311.53L482.69 311.73L460.61 312.14L453.93 312.28H452.11H451.63L451.47 312.34Z" fill="#263238"/>
    <path d="M426.12 322.18C426.12 322.18 430.04 324.27 434.92 326.75C439.8 329.23 443.77 331.2 443.8 331.15C443.83 331.1 439.88 329.06 435 326.58C430.12 324.1 426.14 322.13 426.12 322.18Z" fill="#FAFAFA"/>
    <path d="M417.91 320.64L418.1 320.75L418.66 321.05L420.74 322.05C422.49 322.94 424.9 324.17 427.55 325.57C430.2 326.97 432.55 328.27 434.3 329.21L436.3 330.33L436.85 330.63C436.98 330.69 437.05 330.73 437.06 330.72L436.87 330.59L436.33 330.27C435.86 329.98 435.18 329.58 434.33 329.1C432.63 328.1 430.26 326.81 427.61 325.41C424.96 324.01 422.53 322.79 420.77 321.93L418.67 320.93L418.09 320.67C418.031 320.655 417.971 320.645 417.91 320.64Z" fill="#FAFAFA"/>
    <path d="M382.43 324.07C382.43 324.07 382.43 324.07 382.59 324.15L383.04 324.36L384.72 325.08C386.13 325.69 388.08 326.55 390.21 327.55C392.34 328.55 394.21 329.49 395.63 330.18L397.26 331L397.71 331.22L397.87 331.29L397.73 331.19L397.3 330.94L395.69 330.07C394.33 329.34 392.43 328.38 390.29 327.38C388.15 326.38 386.2 325.54 384.77 324.96L383.07 324.29L382.6 324.12L382.43 324.07Z" fill="#FAFAFA"/>
    <path d="M387.54 323.5C387.861 323.696 388.195 323.87 388.54 324.02C389.18 324.32 390.06 324.75 391.02 325.27C391.98 325.79 392.81 326.27 393.42 326.66C393.736 326.882 394.071 327.076 394.42 327.24C394.135 326.982 393.827 326.751 393.5 326.55C392.729 326.028 391.931 325.548 391.11 325.11C390.296 324.662 389.458 324.258 388.6 323.9C388.26 323.733 387.905 323.599 387.54 323.5Z" fill="#FAFAFA"/>
    <path d="M467.73 322.28C467.73 322.28 470.31 323.34 473.54 324.53C476.77 325.72 479.4 326.65 479.42 326.61C479.44 326.57 476.83 325.55 473.6 324.36C470.37 323.17 467.75 322.24 467.73 322.28Z" fill="#FAFAFA"/>
    <path d="M471.05 321.16C471.05 321.16 473.27 322.05 476.05 323.02C478.83 323.99 481.11 324.75 481.12 324.7C481.13 324.65 478.9 323.82 476.12 322.85C473.34 321.88 471.06 321.12 471.05 321.16Z" fill="#FAFAFA"/>
    <path d="M319.96 351.35H320.25L321.09 351.25L321.7 351.18L322.42 351.13C322.94 351.13 323.52 351.03 324.18 351.03H325.18H326.29C327.06 351.03 327.88 351.11 328.74 351.18C330.601 351.387 332.445 351.721 334.26 352.18C336.069 352.664 337.84 353.279 339.56 354.02C340.34 354.38 341.1 354.71 341.77 355.08C342.11 355.26 342.44 355.42 342.77 355.6L343.66 356.12C344.23 356.44 344.66 356.78 345.15 357.06L345.75 357.46L346.24 357.82L346.92 358.31L347.17 358.47L346.95 358.28L346.28 357.76L345.8 357.39L345.2 356.97C344.77 356.68 344.29 356.33 343.72 355.97L342.84 355.43C342.54 355.25 342.2 355.09 341.84 354.9C341.17 354.52 340.42 354.19 339.63 353.82C337.906 353.068 336.127 352.446 334.31 351.96C332.484 351.49 330.626 351.155 328.75 350.96C327.89 350.9 327.07 350.82 326.3 350.82C325.91 350.82 325.54 350.82 325.18 350.82H324.18C323.53 350.82 322.94 350.9 322.42 350.94L321.7 351.01L321.09 351.1L320.26 351.23L319.96 351.35Z" fill="#FAFAFA"/>
    <path d="M468.84 348.49H469.07H469.74C470.03 348.49 470.38 348.49 470.74 348.49C471.1 348.49 471.62 348.49 472.13 348.56L472.94 348.62L473.81 348.73C474.41 348.79 475.05 348.91 475.72 349.01C477.171 349.287 478.606 349.641 480.02 350.07C481.52 350.55 482.92 351.07 484.17 351.63C485.42 352.19 486.52 352.72 487.43 353.21C487.89 353.44 488.29 353.68 488.65 353.88L489.56 354.41L490.13 354.75C490.195 354.795 490.266 354.832 490.34 354.86C490.285 354.803 490.221 354.756 490.15 354.72L489.59 354.35C489.35 354.19 489.06 354 488.7 353.79C488.34 353.58 487.95 353.33 487.49 353.09C486.59 352.58 485.49 352.03 484.24 351.47C482.883 350.871 481.494 350.346 480.08 349.9C478.659 349.463 477.213 349.109 475.75 348.84C475.07 348.74 474.43 348.63 473.82 348.57L472.95 348.48L472.14 348.43C471.62 348.43 471.14 348.43 470.74 348.43C470.34 348.43 469.98 348.43 469.74 348.43H469.07L468.84 348.49Z" fill="#FAFAFA"/>
    <path d="M0 406H1410" stroke="#E0E0E0" stroke-width="5"/>
    <path d="M579.02 18.4201C579.6 14.1501 573.57 10.6301 569.02 10.2601C566.86 10.0901 564.61 10.4201 562.56 9.70009C558.12 8.16009 556.35 2.42009 552.02 0.590089C548.78 -0.769911 545.02 0.440089 541.91 2.02009C538.8 3.60009 535.66 5.59009 532.16 5.82009C529.11 6.01009 525.79 4.88009 523.16 6.37009C521.16 7.48009 520.16 9.77009 518.3 11.1301C516.44 12.4901 514.16 12.7301 511.94 12.8501C509.72 12.9701 507.41 12.9901 505.38 13.9201C503.35 14.8501 501.68 16.9901 502.1 19.1801L579.02 18.4201Z" fill="#EBEBEB"/>
    <path d="M1376.98 83.4398C1377.72 77.9998 1370.04 73.5198 1364.27 73.0498C1361.52 72.8298 1358.66 73.2498 1356.06 72.3398C1350.41 70.3398 1348.15 63.0798 1342.64 60.7498C1338.52 59.0198 1333.78 60.5598 1329.78 62.5698C1325.78 64.5798 1321.84 67.1098 1317.38 67.3998C1313.49 67.6498 1309.28 66.2098 1305.88 68.0998C1303.35 69.5198 1302.03 72.4298 1299.69 74.1498C1297.35 75.8698 1294.43 76.1498 1291.6 76.3498C1288.77 76.5498 1285.84 76.5298 1283.26 77.7098C1280.68 78.8898 1278.55 81.6198 1279.08 84.3998L1376.98 83.4398Z" fill="#EBEBEB"/>
    <path d="M395.982 83.4342C396.722 77.9942 389.042 73.5142 383.272 73.0542C380.522 72.8342 377.662 73.2542 375.062 72.3442C369.412 70.3442 367.152 63.0742 361.642 60.7542C357.522 59.0142 352.782 60.5642 348.782 62.5742C344.782 64.5842 340.842 67.1142 336.382 67.3942C332.492 67.6442 328.282 66.2042 324.882 68.1042C322.352 69.5142 321.032 72.4342 318.692 74.1042C316.352 75.7742 313.432 76.1042 310.602 76.2942C307.772 76.4842 304.842 76.4842 302.262 77.6642C299.682 78.8442 297.552 81.5642 298.082 84.3542L395.982 83.4342Z" fill="#F5F5F5"/>
    <path d="M1059 40.424C1059.59 36.144 1053.56 32.624 1049 32.254C1046.84 32.084 1044.59 32.414 1042.54 31.704C1038.1 30.154 1036.33 24.414 1031.99 22.594C1028.75 21.224 1024.99 22.444 1021.89 24.024C1018.79 25.604 1015.64 27.584 1012.13 27.814C1009.08 28.004 1005.77 26.874 1003.13 28.364C1001.13 29.474 1000.13 31.774 998.265 33.124C996.395 34.474 994.135 34.724 991.905 34.844C989.675 34.964 987.375 34.994 985.355 35.924C983.335 36.854 981.645 38.994 982.065 41.184L1059 40.424Z" fill="#F5F5F5"/>
    <path d="M712.59 58.9899C713.18 54.7099 707.15 51.1899 702.59 50.8299C700.43 50.6499 698.18 50.9799 696.13 50.2699C691.69 48.7199 689.92 42.9799 685.58 41.1599C682.35 39.7899 678.58 41.0099 675.48 42.5899C672.38 44.1699 669.23 46.1599 665.72 46.3799C662.67 46.5799 659.36 45.4399 656.72 46.9299C654.72 48.0499 653.72 50.3399 651.85 51.6899C649.98 53.0399 647.72 53.2899 645.49 53.4099C643.26 53.5299 640.96 53.5599 638.94 54.4899C636.92 55.4199 635.23 57.5599 635.65 59.7499L712.59 58.9899Z" fill="#F5F5F5"/>
    <path d="M123.005 59.424C123.595 55.144 117.565 51.624 113.005 51.264C110.845 51.084 108.595 51.414 106.545 50.704C102.105 49.154 100.335 43.414 95.9946 41.594C92.7646 40.224 88.9946 41.444 85.8946 43.024C82.7946 44.604 79.6446 46.594 76.1346 46.814C73.0846 47.014 69.7746 45.874 67.1346 47.364C65.1346 48.484 64.1346 50.774 62.2646 52.124C60.3946 53.474 58.1346 53.724 55.9046 53.844C53.6746 53.964 51.3746 53.994 49.3546 54.924C47.3346 55.854 45.6446 57.994 46.0646 60.184L123.005 59.424Z" fill="#F5F5F5"/>
    <path d="M973.8 441.83H835.72L829.58 433.79H967.67L973.8 441.83Z" fill="#E0E0E0"/>
    <path d="M631.81 437.81H493.72L487.59 429.77H625.67L631.81 437.81Z" fill="#E0E0E0"/>
    <path d="M218 427H590V409" stroke="#F56D45" stroke-width="5"/>
    <path d="M552 427H924V409" stroke="#F56D45" stroke-width="5"/>
    <path d="M926.75 355.239H717.13V385.999H926.75V355.239Z" fill="#F56D45"/>
    <g opacity="0.5">
        <path opacity="0.5" d="M926.75 355.239H717.13V385.999H926.75V355.239Z" fill="black"/>
    </g>
    <path d="M765.44 386.281C765.725 375.122 756.91 365.847 745.752 365.562C734.594 365.278 725.318 374.093 725.034 385.251C724.749 396.409 733.564 405.685 744.722 405.969C755.88 406.253 765.156 397.439 765.44 386.281Z" fill="#263238"/>
    <path d="M725.1 385.449V385.499C725.062 388.153 725.547 390.789 726.527 393.255C727.508 395.722 728.965 397.971 730.814 399.875C734.55 403.719 739.66 405.922 745.02 405.999C750.38 406.076 755.551 404.02 759.396 400.285C763.24 396.549 765.443 391.439 765.52 386.079C765.52 386.079 765.52 386.079 765.52 386.029L725.1 385.449Z" fill="#263238"/>
    <path d="M731.16 385.629C731.123 388.434 731.918 391.188 733.446 393.542C734.973 395.896 737.164 397.744 739.742 398.853C742.319 399.961 745.168 400.281 747.927 399.771C750.686 399.261 753.233 397.945 755.244 395.988C757.255 394.031 758.641 391.522 759.226 388.778C759.812 386.034 759.571 383.178 758.533 380.571C757.496 377.963 755.708 375.722 753.397 374.131C751.087 372.539 748.356 371.669 745.55 371.629C743.685 371.601 741.833 371.941 740.1 372.63C738.367 373.319 736.787 374.343 735.451 375.644C734.114 376.944 733.047 378.495 732.311 380.209C731.574 381.922 731.183 383.764 731.16 385.629Z" fill="#FAFAFA"/>
    <path d="M745.51 371.629C741.752 371.586 738.13 373.036 735.44 375.661C732.749 378.286 731.21 381.871 731.16 385.629L759.53 386.039C759.56 384.171 759.221 382.315 758.532 380.579C757.843 378.842 756.818 377.259 755.515 375.92C754.212 374.581 752.658 373.512 750.941 372.776C749.224 372.039 747.378 371.65 745.51 371.629Z" fill="#E0E0E0"/>
    <path d="M736.66 385.629C736.634 387.34 737.117 389.02 738.046 390.457C738.976 391.893 740.311 393.022 741.882 393.7C743.453 394.378 745.19 394.575 746.873 394.266C748.556 393.956 750.109 393.155 751.336 391.962C752.564 390.77 753.41 389.24 753.768 387.567C754.126 385.894 753.979 384.152 753.347 382.562C752.715 380.972 751.625 379.605 750.216 378.634C748.806 377.664 747.141 377.133 745.43 377.109C744.294 377.092 743.167 377.299 742.111 377.718C741.056 378.137 740.093 378.759 739.279 379.551C738.464 380.342 737.814 381.286 737.364 382.329C736.915 383.372 736.676 384.493 736.66 385.629Z" fill="#263238"/>
    <path d="M920.06 386.311C920.35 375.154 911.54 365.873 900.382 365.583C889.225 365.293 879.944 374.103 879.654 385.26C879.364 396.418 888.173 405.699 899.331 405.989C910.489 406.279 919.77 397.469 920.06 386.311Z" fill="#263238"/>
    <path d="M879.66 385.449V385.499C879.583 390.859 881.639 396.03 885.374 399.875C889.11 403.719 894.22 405.922 899.58 405.999C904.94 406.076 910.111 404.02 913.956 400.285C917.8 396.549 920.003 391.439 920.08 386.079V386.029L879.66 385.449Z" fill="#263238"/>
    <path d="M885.68 385.629C885.643 388.435 886.438 391.188 887.966 393.542C889.493 395.896 891.684 397.744 894.262 398.853C896.839 399.961 899.688 400.281 902.447 399.771C905.206 399.261 907.753 397.945 909.764 395.988C911.775 394.031 913.161 391.522 913.746 388.778C914.332 386.034 914.091 383.178 913.053 380.571C912.016 377.964 910.228 375.723 907.917 374.131C905.607 372.539 902.876 371.669 900.07 371.629C898.206 371.602 896.354 371.944 894.622 372.633C892.89 373.322 891.31 374.347 889.974 375.647C888.637 376.947 887.57 378.498 886.833 380.211C886.097 381.923 885.705 383.765 885.68 385.629Z" fill="#FAFAFA"/>
    <path d="M900.07 371.629C898.206 371.602 896.354 371.944 894.622 372.633C892.89 373.322 891.31 374.347 889.974 375.647C888.637 376.947 887.57 378.498 886.833 380.211C886.097 381.923 885.705 383.765 885.68 385.629L914.06 386.039C914.088 384.174 913.748 382.322 913.06 380.589C912.372 378.855 911.349 377.274 910.05 375.936C908.751 374.598 907.201 373.529 905.488 372.79C903.776 372.051 901.935 371.656 900.07 371.629Z" fill="#E0E0E0"/>
    <path d="M891.22 385.629C891.194 387.34 891.677 389.02 892.606 390.457C893.536 391.893 894.871 393.022 896.442 393.7C898.013 394.378 899.75 394.575 901.433 394.265C903.116 393.956 904.669 393.155 905.896 391.962C907.124 390.77 907.97 389.24 908.328 387.567C908.686 385.894 908.539 384.152 907.907 382.562C907.275 380.972 906.185 379.605 904.776 378.634C903.366 377.664 901.701 377.133 899.99 377.109C897.697 377.077 895.486 377.956 893.842 379.554C892.197 381.151 891.254 383.336 891.22 385.629Z" fill="#263238"/>
    <path d="M771.8 337.939C771.8 337.939 742.04 340.129 731.01 342.599C723.23 344.349 708.24 347.359 708.42 356.789L709.61 363.549C707.947 364.396 706.55 365.683 705.569 367.27C704.589 368.857 704.063 370.683 704.05 372.549C704.05 379.029 702.69 389.089 715.67 389.489C717.81 389.559 721.87 389.489 721.87 389.489C721.87 389.489 719.38 361.839 744.78 361.029C770.62 360.209 768.9 389.239 768.9 389.239H876.74C876.74 389.239 872.31 360.959 900.12 360.919C927.93 360.879 923.71 389.419 923.71 389.419C923.71 389.419 933.94 390.309 938.71 381.709C943.48 373.109 942.23 366.989 942.23 366.989L942.07 361.549C942.045 360.657 941.682 359.809 941.054 359.176C940.426 358.542 939.581 358.172 938.69 358.139C938.69 358.139 940.55 344.449 937.69 342.079C934.83 339.709 919.16 325.439 919.16 325.439L919.91 324.979C920.19 324.802 920.414 324.55 920.557 324.251C920.701 323.953 920.757 323.62 920.719 323.291C920.681 322.962 920.552 322.65 920.345 322.392C920.138 322.133 919.863 321.938 919.55 321.829L899.12 314.829C898.708 314.68 898.277 314.589 897.84 314.559C896.19 314.429 891.53 314.139 882.97 314.049C872.55 313.939 831.16 314.049 831.16 314.049C831.16 314.049 816.92 315.219 808.99 318.709C800.68 322.339 771.8 337.939 771.8 337.939Z" fill="#F56D45"/>
    <g opacity="0.4">
        <path opacity="0.4" d="M711.59 371.819C710.51 371.599 708.86 371.579 708.03 372.309C707.482 372.927 707.177 373.723 707.17 374.549C706.998 375.661 707.022 376.795 707.24 377.899C707.354 378.45 707.581 378.972 707.906 379.431C708.232 379.89 708.648 380.278 709.13 380.569C709.619 380.849 710.186 380.964 710.746 380.897C711.306 380.831 711.83 380.586 712.24 380.199C712.854 379.364 713.126 378.327 713 377.299C713.064 375.92 713.007 374.538 712.83 373.169C712.766 372.868 712.636 372.584 712.45 372.339C712.358 372.19 712.232 372.065 712.083 371.975C711.933 371.884 711.764 371.831 711.59 371.819Z" fill="black"/>
    </g>
    <path d="M709.61 363.549C712.77 363.549 715.83 363.379 718.99 363.169C719.18 363.199 719.374 363.181 719.556 363.117C719.737 363.052 719.899 362.944 720.028 362.8C720.156 362.657 720.246 362.484 720.29 362.297C720.334 362.11 720.331 361.914 720.28 361.729C720.28 360.029 720.21 358.109 718.92 356.999C718.081 356.379 717.073 356.03 716.03 355.999C713.467 355.727 710.876 355.989 708.42 356.769L709.61 363.549Z" fill="#FAFAFA"/>
    <path d="M775.22 388.389V388.119C775.22 387.939 775.22 387.669 775.22 387.329C775.22 386.619 775.13 385.599 775.05 384.279C774.97 382.959 774.89 381.329 774.7 379.459C774.509 377.338 774.138 375.237 773.59 373.179C772.91 370.693 771.901 368.308 770.59 366.089C769.081 363.537 767.082 361.308 764.71 359.529C759.03 355.741 752.348 353.735 745.52 353.769C738.68 353.619 731.981 355.727 726.46 359.769C724.076 361.531 721.986 363.661 720.27 366.079C718.776 368.184 717.56 370.473 716.65 372.889C715.905 374.887 715.391 376.964 715.12 379.079C714.909 380.673 714.849 382.283 714.94 383.889C714.999 384.896 715.123 385.898 715.31 386.889L715.45 387.669C715.45 387.849 715.45 387.939 715.45 387.939L715.39 387.679L715.23 386.899C715.03 385.909 714.893 384.907 714.82 383.899C714.717 382.288 714.768 380.671 714.97 379.069C715.234 376.948 715.74 374.864 716.48 372.859C717.386 370.426 718.603 368.12 720.1 365.999C721.818 363.559 723.915 361.409 726.31 359.629C731.862 355.561 738.599 353.434 745.48 353.579C752.348 353.545 759.067 355.572 764.77 359.399C767.164 361.19 769.177 363.44 770.69 366.019C772.005 368.251 773.014 370.649 773.69 373.149C774.236 375.217 774.6 377.328 774.78 379.459C774.96 381.339 775.04 382.959 775.1 384.289C775.16 385.619 775.2 386.629 775.23 387.339C775.23 387.679 775.23 387.939 775.23 388.129C775.23 388.319 775.22 388.389 775.22 388.389Z" fill="#263238"/>
    <path d="M776.36 388.859C776.36 388.859 776.36 388.779 776.36 388.629C776.36 388.479 776.36 388.259 776.36 387.959C776.36 387.369 776.36 386.489 776.27 385.349C776.21 383.059 776.11 379.709 775.99 375.449C775.87 371.189 775.73 365.999 775.57 360.069C775.53 358.575 775.49 357.045 775.45 355.479C775.424 354.677 775.457 353.875 775.55 353.079C775.61 352.669 775.67 352.269 775.72 351.859C775.77 351.449 775.89 351.049 775.97 350.639C776.363 348.972 776.926 347.35 777.65 345.799C778.402 344.169 779.331 342.626 780.42 341.199L799.1 329.429L804.1 326.259C805.796 325.117 807.582 324.113 809.44 323.259C811.326 322.371 813.263 321.597 815.24 320.939C816.24 320.589 817.24 320.309 818.24 319.999C819.24 319.689 820.24 319.449 821.34 319.239C825.29 318.394 829.304 317.885 833.34 317.719C837.221 317.523 841.109 317.523 844.99 317.719H845.16V317.829C843.37 325.829 841.68 333.359 840.16 340.279C839.232 341.797 838.474 343.414 837.9 345.099C837.331 346.702 837.073 348.399 837.14 350.099C837.27 351.759 837.32 353.389 837.36 354.959C837.4 356.529 837.42 358.059 837.45 359.549C837.54 365.479 837.56 370.649 837.57 374.919C837.58 379.189 837.57 382.529 837.57 384.819C837.57 385.959 837.57 386.819 837.57 387.429C837.57 387.719 837.57 387.939 837.57 388.089C837.574 388.165 837.574 388.242 837.57 388.319V388.089C837.57 387.939 837.57 387.719 837.57 387.429C837.57 386.829 837.57 385.959 837.57 384.819C837.57 382.529 837.57 379.179 837.51 374.919C837.45 370.659 837.45 365.479 837.35 359.549C837.35 358.069 837.28 356.549 837.25 354.959C837.22 353.369 837.16 351.769 837.03 350.119C836.952 348.399 837.21 346.68 837.79 345.059C838.363 343.361 839.121 341.731 840.05 340.199L845.05 317.749L845.14 317.859C841.266 317.659 837.384 317.659 833.51 317.859C829.474 318.019 825.459 318.527 821.51 319.379C820.51 319.579 819.45 319.879 818.42 320.129C817.39 320.379 816.42 320.719 815.42 321.069C813.45 321.722 811.52 322.49 809.64 323.369C807.795 324.229 806.019 325.232 804.33 326.369L799.16 329.629L780.5 341.329C779.423 342.746 778.501 344.275 777.75 345.889C777.028 347.43 776.468 349.042 776.08 350.699C775.23 353.939 775.65 357.129 775.66 360.089C775.81 366.019 775.94 371.199 776.04 375.459C776.14 379.719 776.22 383.079 776.28 385.369C776.28 386.509 776.28 387.369 776.33 387.979V388.879L776.36 388.859Z" fill="#263238"/>
    <path d="M844.95 318.409H845.16H845.68L847.68 318.359L855.12 318.219L880.2 317.789L883.71 322.099L893.71 334.399L894.85 335.799C895.719 336.897 896.278 338.209 896.468 339.596C896.658 340.984 896.472 342.397 895.93 343.689C895.53 344.609 895.15 345.499 894.79 346.349L891.32 354.349L890.32 356.529L890.07 357.089C890.041 357.154 890.008 357.218 889.97 357.279L890.05 357.079L890.28 356.509C890.5 355.999 890.8 355.269 891.2 354.319L894.61 346.319C895.26 344.609 896.4 342.819 896.33 340.629C896.315 339.514 896.059 338.415 895.58 337.409C895.329 336.886 895.02 336.393 894.66 335.939C894.28 335.479 893.9 335.019 893.52 334.539L883.52 322.249L880.01 317.949H880.09L855 318.319L847.56 318.399H845.56H844.86L844.95 318.409Z" fill="#263238"/>
    <path d="M832.29 351.759H832.59C832.872 351.707 833.141 351.598 833.38 351.439C833.753 351.204 834.038 350.852 834.19 350.439C834.279 350.172 834.316 349.89 834.3 349.609C834.288 349.295 834.206 348.987 834.06 348.709C833.892 348.392 833.641 348.127 833.335 347.941C833.029 347.754 832.678 347.653 832.32 347.649H823.94C823.45 347.645 822.976 347.821 822.607 348.144C822.239 348.466 822.001 348.913 821.94 349.399C821.876 349.856 821.96 350.323 822.18 350.729C822.406 351.12 822.759 351.423 823.18 351.589C823.585 351.727 824.013 351.782 824.44 351.749H827.9H831.11H831.99H832.29C832.191 351.764 832.089 351.764 831.99 351.749H831.11H827.9H824.44C824.22 351.749 824.02 351.749 823.79 351.749C823.556 351.739 823.326 351.688 823.11 351.599C822.663 351.415 822.29 351.088 822.05 350.669C821.812 350.225 821.718 349.718 821.78 349.219C821.839 348.688 822.092 348.197 822.491 347.841C822.889 347.485 823.405 347.288 823.94 347.289H832.32C832.876 347.302 833.406 347.53 833.798 347.925C834.189 348.321 834.412 348.852 834.42 349.409C834.432 349.704 834.391 349.998 834.3 350.279C834.137 350.725 833.831 351.104 833.43 351.359C833.178 351.516 832.895 351.615 832.6 351.649C832.502 351.699 832.398 351.736 832.29 351.759Z" fill="#263238"/>
    <path d="M888.16 351.759H888.46C888.742 351.707 889.011 351.598 889.25 351.439C889.623 351.204 889.908 350.852 890.06 350.439C890.149 350.172 890.186 349.89 890.17 349.609C890.158 349.295 890.076 348.987 889.93 348.709C889.762 348.393 889.511 348.127 889.205 347.941C888.899 347.754 888.548 347.654 888.19 347.649H879.81C879.32 347.645 878.846 347.821 878.477 348.144C878.109 348.466 877.871 348.913 877.81 349.399C877.804 349.834 877.926 350.262 878.16 350.629C878.386 351.02 878.739 351.324 879.16 351.489C879.565 351.627 879.993 351.682 880.42 351.649H883.88H887.09H887.96H888.27C888.167 351.664 888.063 351.664 887.96 351.649H887.09H883.88H880.42C880.2 351.649 880 351.649 879.77 351.649C879.536 351.639 879.306 351.588 879.09 351.499C878.643 351.316 878.27 350.988 878.03 350.569C877.792 350.125 877.698 349.619 877.76 349.119C877.819 348.588 878.072 348.097 878.471 347.741C878.869 347.385 879.385 347.188 879.92 347.189H888.3C888.856 347.202 889.386 347.43 889.778 347.825C890.169 348.221 890.392 348.753 890.4 349.309C890.412 349.604 890.371 349.898 890.28 350.179C890.117 350.625 889.811 351.004 889.41 351.259C889.157 351.413 888.874 351.512 888.58 351.549C888.455 351.645 888.312 351.717 888.16 351.759Z" fill="#263238"/>
    <path d="M937.16 342.629H925.98C925.228 342.629 924.49 342.835 923.847 343.225C923.203 343.614 922.679 344.172 922.33 344.839C922.038 345.387 921.875 345.994 921.852 346.614C921.83 347.234 921.949 347.851 922.2 348.419L926.59 358.419L937.78 358.309C937.78 358.309 940.16 345.629 937.16 342.629Z" fill="#FAFAFA"/>
    <path d="M781.88 341.229L839.58 340.169L877.13 339.479L889.52 332.329C889.756 332.192 889.96 332.006 890.118 331.784C890.277 331.562 890.387 331.309 890.441 331.042C890.495 330.775 890.491 330.499 890.431 330.233C890.37 329.967 890.254 329.717 890.09 329.499L882.38 319.369C881.982 318.849 881.471 318.427 880.885 318.134C880.299 317.841 879.655 317.685 879 317.679L837 317.339C837 317.339 821.18 316.419 808.72 323.399C799.421 328.793 790.457 334.748 781.88 341.229Z" fill="#263238"/>
    <path d="M808.32 318.389C808.32 318.389 811.21 319.709 809.32 320.929C807.43 322.149 778.21 340.629 778.21 340.629L771.49 337.629C783.4 330.909 795.42 324.469 808.32 318.389Z" fill="#455A64"/>
    <path d="M779.16 341.039H778.98L778.45 341.149L776.45 341.579C774.66 341.929 772.08 342.429 768.87 342.979C762.46 344.079 753.56 345.369 743.68 346.219C741.2 346.439 738.79 346.622 736.45 346.769C734.12 346.919 731.87 347.059 729.73 347.259C725.933 347.532 722.172 348.175 718.5 349.179C716.034 349.878 713.661 350.868 711.43 352.129C710.62 352.559 710.05 352.969 709.64 353.219L709.18 353.519L709.02 353.609L709.17 353.499L709.62 353.189C710.19 352.785 710.781 352.411 711.39 352.069C713.614 350.781 715.989 349.774 718.46 349.069C722.134 348.027 725.902 347.357 729.71 347.069C731.85 346.869 734.11 346.719 736.44 346.569C738.77 346.419 741.19 346.229 743.66 346.019C753.54 345.159 762.44 343.899 768.85 342.829C772.06 342.299 774.64 341.829 776.43 341.489L778.49 341.099L779.02 341.009L779.16 341.039Z" fill="#263238"/>
    <path d="M941.66 366.879C941.66 366.939 937.81 366.979 933.07 366.979C928.33 366.979 924.48 366.979 924.48 366.879C924.48 366.779 928.33 366.779 933.07 366.779C937.81 366.779 941.66 366.829 941.66 366.879Z" fill="#263238"/>
    <path d="M871.3 376.699C871.3 376.749 849.59 376.789 822.82 376.789C796.05 376.789 774.33 376.789 774.33 376.699C774.33 376.609 796.03 376.599 822.82 376.599C849.61 376.599 871.3 376.629 871.3 376.699Z" fill="#263238"/>
    <path d="M719.29 367.209C719.29 367.259 716.22 367.299 712.44 367.299C708.66 367.299 705.58 367.299 705.58 367.209C705.58 367.119 708.65 367.109 712.44 367.109C716.23 367.109 719.29 367.149 719.29 367.209Z" fill="#263238"/>
    <path d="M918.9 325.049C918.9 325.049 916.32 327.929 917.33 330.049C918.34 332.169 928.81 339.579 928.81 339.579L936.41 340.999L918.9 325.049Z" fill="#455A64"/>
    <path d="M846.66 319.889L844.95 338.339L875.52 337.459L887.84 330.299L879.86 319.889H846.66Z" fill="#455A64"/>
    <path d="M789.16 339.279C789.16 339.279 807.6 325.959 814.88 323.279C820.375 321.074 826.239 319.937 832.16 319.929C838.46 319.749 842.31 319.929 842.31 319.929L837.43 338.689L789.16 339.279Z" fill="#455A64"/>
    <path d="M786.42 339.339C786.421 338.765 786.574 338.201 786.863 337.706C787.153 337.21 787.57 336.801 788.07 336.519L792.3 334.139C793.524 333.465 794.903 333.12 796.3 333.139C797.152 333.14 797.999 333.275 798.81 333.539C799.693 333.844 800.463 334.412 801.015 335.166C801.567 335.92 801.876 336.825 801.9 337.759C801.924 338.386 801.822 339.011 801.598 339.598C801.375 340.184 801.036 340.719 800.6 341.171C800.165 341.623 799.643 341.982 799.066 342.228C798.488 342.473 797.867 342.599 797.24 342.599H789.69C789.26 342.606 788.832 342.526 788.433 342.365C788.034 342.203 787.671 341.964 787.366 341.66C787.061 341.356 786.821 340.994 786.658 340.595C786.496 340.197 786.415 339.769 786.42 339.339Z" fill="#F56D45"/>
    <path d="M786.42 339.339C786.42 339.339 786.42 339.479 786.42 339.749C786.473 340.139 786.599 340.515 786.79 340.859C787.095 341.398 787.546 341.842 788.09 342.139C788.43 342.316 788.799 342.431 789.18 342.479C789.613 342.504 790.047 342.504 790.48 342.479H796.94C797.553 342.498 798.164 342.399 798.74 342.189C799.336 341.967 799.88 341.627 800.34 341.189C800.815 340.718 801.181 340.15 801.414 339.524C801.647 338.897 801.74 338.228 801.688 337.561C801.635 336.895 801.438 336.248 801.111 335.666C800.783 335.083 800.332 334.579 799.79 334.189C799.262 333.83 798.667 333.581 798.04 333.459C797.441 333.312 796.827 333.238 796.21 333.239C795.069 333.239 793.941 333.481 792.9 333.949C792.41 334.169 791.96 334.439 791.52 334.679L790.26 335.379L788.16 336.549C787.61 336.837 787.157 337.283 786.86 337.829C786.667 338.169 786.538 338.542 786.48 338.929C786.48 339.199 786.48 339.339 786.48 339.339C786.467 339.202 786.467 339.065 786.48 338.929C786.525 338.53 786.643 338.144 786.83 337.789C787.127 337.224 787.582 336.758 788.14 336.449L790.3 335.219L791.56 334.509C792 334.269 792.44 333.989 792.94 333.759C794 333.27 795.153 333.018 796.32 333.019C796.949 333.019 797.576 333.09 798.19 333.229C798.84 333.363 799.457 333.621 800.01 333.989C800.582 334.394 801.057 334.921 801.403 335.531C801.749 336.141 801.956 336.82 802.01 337.519C802.062 338.226 801.96 338.935 801.71 339.599C801.467 340.23 801.092 340.803 800.611 341.278C800.13 341.754 799.554 342.122 798.92 342.359C798.321 342.575 797.687 342.677 797.05 342.659H790.59C790.15 342.684 789.71 342.684 789.27 342.659C788.873 342.609 788.49 342.483 788.14 342.289C787.582 341.979 787.127 341.514 786.83 340.949C786.64 340.596 786.524 340.208 786.49 339.809C786.446 339.656 786.423 339.498 786.42 339.339Z" fill="#263238"/>
    <path d="M928.52 388.559C928.52 388.559 928.52 388.469 928.52 388.299C928.52 388.129 928.52 387.869 928.57 387.529C928.62 387.189 928.63 386.779 928.65 386.289C928.67 385.799 928.65 385.219 928.71 384.579C928.77 383.939 928.71 383.229 928.71 382.449C928.71 381.669 928.71 380.819 928.55 379.919C928.383 377.862 928.018 375.826 927.46 373.839C927.129 372.684 926.725 371.552 926.25 370.449C925.746 369.254 925.137 368.106 924.43 367.019C922.855 364.62 920.851 362.532 918.52 360.859C915.957 358.991 913.092 357.577 910.05 356.679C906.776 355.745 903.384 355.294 899.98 355.339C896.575 355.303 893.184 355.796 889.93 356.799C888.39 357.28 886.895 357.892 885.46 358.629C884.091 359.356 882.789 360.203 881.57 361.159C879.308 362.932 877.29 364.997 875.57 367.299C874.813 368.356 874.144 369.473 873.57 370.639C873.051 371.72 872.59 372.828 872.19 373.959C870.98 377.376 870.247 380.942 870.01 384.559C869.95 385.839 870.01 386.839 870.01 387.509C870.01 387.849 870.01 388.099 870.01 388.279C870.017 388.365 870.017 388.452 870.01 388.539C870.01 388.539 870.01 388.459 870.01 388.279C870.01 388.099 870.01 387.849 869.94 387.519C869.94 386.839 869.88 385.839 869.94 384.519C870.147 380.887 870.86 377.303 872.06 373.869C872.43 372.779 872.91 371.669 873.43 370.529C874.005 369.353 874.673 368.226 875.43 367.159C877.148 364.842 879.165 362.764 881.43 360.979C882.654 360.01 883.963 359.154 885.34 358.419C886.784 357.672 888.29 357.05 889.84 356.559C893.113 355.544 896.524 355.044 899.95 355.079C903.374 355.042 906.786 355.5 910.08 356.439C913.14 357.343 916.022 358.767 918.6 360.649C919.796 361.527 920.913 362.508 921.94 363.579C922.915 364.586 923.786 365.688 924.54 366.869C925.248 367.966 925.857 369.124 926.36 370.329C926.836 371.437 927.237 372.577 927.56 373.739C928.111 375.737 928.469 377.783 928.63 379.849C928.73 380.749 928.73 381.599 928.77 382.389C928.81 383.179 928.77 383.879 928.77 384.519C928.77 385.159 928.71 385.729 928.69 386.229C928.67 386.729 928.62 387.139 928.59 387.479L928.52 388.239V388.559Z" fill="#263238"/>
    <path d="M836.58 341.229H836.24H835.24L831.61 341.289C828.55 341.349 824.33 341.459 819.61 341.589C814.89 341.719 810.71 341.799 807.61 341.829H803.98H802.98H802.63C802.63 341.829 802.63 341.829 802.72 341.829H803.16H804.16L807.79 341.769C810.85 341.709 815.07 341.599 819.79 341.469C824.51 341.339 828.69 341.249 831.79 341.229H836.74H836.58Z" fill="white"/>
    <path d="M831.57 346.909C829.369 347.042 827.161 347.042 824.96 346.909C827.162 346.789 829.368 346.789 831.57 346.909Z" fill="white"/>
    <path d="M832.79 326.699C832.79 326.749 828.7 328.459 823.61 330.519C818.52 332.579 814.38 334.209 814.36 334.149C814.34 334.089 818.45 332.389 823.54 330.329C828.63 328.269 832.77 326.629 832.79 326.699Z" fill="white"/>
    <path d="M824.46 327.989C824.46 328.039 820.57 329.759 815.73 331.829C810.89 333.899 806.93 335.549 806.91 335.499C806.89 335.449 810.8 333.729 815.65 331.649C820.5 329.569 824.44 327.939 824.46 327.989Z" fill="white"/>
    <path d="M877.27 325.979C877.27 325.979 873.18 327.739 868.09 329.799C863 331.859 858.86 333.489 858.84 333.439C858.82 333.389 862.93 331.679 868.02 329.619C873.11 327.559 877.25 325.929 877.27 325.979Z" fill="white"/>
    <path d="M868.94 327.269C868.94 327.319 865.05 329.039 860.2 331.119C855.35 333.199 851.41 334.839 851.39 334.789C851.37 334.739 855.28 333.019 860.13 330.939C864.98 328.859 868.92 327.219 868.94 327.269Z" fill="white"/>
    <path d="M878.07 341.229C878.07 341.229 869.9 341.379 859.82 341.439C849.74 341.499 841.57 341.499 841.57 341.439C841.57 341.379 849.74 341.289 859.82 341.229C869.9 341.169 878.07 341.179 878.07 341.229Z" fill="white"/>
    <path d="M887.16 346.629C887.16 346.629 884.87 346.749 882.04 346.769C879.21 346.789 876.92 346.769 876.92 346.719C876.92 346.669 879.21 346.599 882.04 346.579C884.87 346.559 887.16 346.539 887.16 346.629Z" fill="white"/>
    <path d="M730.65 343.799C730.58 343.829 730.506 343.846 730.43 343.849L729.79 343.929L728.79 344.069C728.39 344.129 727.94 344.189 727.45 344.289C726.45 344.459 725.3 344.719 724.02 345.059C722.74 345.399 721.36 345.859 719.94 346.409C718.604 346.939 717.296 347.536 716.02 348.199C714.85 348.819 713.82 349.419 713.02 349.959C712.59 350.219 712.23 350.489 711.89 350.709C711.55 350.929 711.28 351.129 711.06 351.299L710.53 351.669L710.34 351.789C710.388 351.73 710.445 351.679 710.51 351.639L711.01 351.229C711.23 351.059 711.5 350.849 711.83 350.619C712.16 350.389 712.52 350.119 712.95 349.849C713.78 349.289 714.81 348.669 715.95 348.039C717.222 347.364 718.531 346.759 719.87 346.229C721.215 345.707 722.587 345.256 723.98 344.879C725.27 344.549 726.44 344.309 727.44 344.149C727.93 344.059 728.38 344.009 728.78 343.959L729.78 343.849H730.42L730.65 343.799Z" fill="white"/>
    <path d="M798.16 334.889C798.16 334.889 798.04 334.739 797.79 334.539C797.427 334.26 796.995 334.087 796.54 334.039C795.866 333.985 795.188 334.056 794.54 334.249C793.727 334.457 792.931 334.728 792.16 335.059C790.76 335.67 789.456 336.482 788.29 337.469C787.39 338.219 786.92 338.779 786.89 338.749C786.981 338.604 787.088 338.47 787.21 338.349C787.525 337.998 787.859 337.664 788.21 337.349C789.363 336.321 790.673 335.484 792.09 334.869C792.871 334.531 793.681 334.263 794.51 334.069C795.181 333.872 795.885 333.811 796.58 333.889C797.055 333.95 797.501 334.152 797.86 334.469C797.957 334.553 798.041 334.651 798.11 334.759L798.16 334.889Z" fill="white"/>
    <path d="M919.75 324.909C919.223 325.037 918.682 325.094 918.14 325.079C917.507 325.056 916.878 324.975 916.26 324.839C915.439 324.654 914.633 324.407 913.85 324.099C912.98 323.769 912.05 323.359 911.05 322.929L909.48 322.289C908.94 322.079 908.37 321.889 907.79 321.679C905.268 320.825 902.697 320.123 900.09 319.579C895.35 318.595 890.537 317.996 885.7 317.789C884.77 317.739 883.93 317.739 883.2 317.719H881.3H880.11H879.79H880.1L881.3 317.649H883.2C883.94 317.649 884.78 317.649 885.71 317.649C890.558 317.811 895.383 318.393 900.13 319.389C902.745 319.934 905.323 320.642 907.85 321.509C908.43 321.719 909 321.909 909.54 322.129L911.11 322.779C912.11 323.209 913.04 323.639 913.9 323.969C914.675 324.279 915.47 324.536 916.28 324.739C916.893 324.886 917.52 324.973 918.15 324.999C918.546 325.023 918.944 325.023 919.34 324.999H919.65L919.75 324.909Z" fill="#263238"/>
    <path d="M1078.97 328.01H1063.84C1059.83 328.01 1056.58 331.26 1056.58 335.27V354C1056.58 358.009 1059.83 361.26 1063.84 361.26H1078.97C1082.98 361.26 1086.23 358.009 1086.23 354V335.27C1086.23 331.26 1082.98 328.01 1078.97 328.01Z" fill="#C5D72B"/>
    <path d="M1086.23 353.52V335.76C1086.22 333.708 1085.41 331.741 1083.96 330.289C1082.51 328.837 1080.54 328.018 1078.49 328.01H1074.31C1076.36 328.018 1078.33 328.837 1079.78 330.289C1081.23 331.741 1082.04 333.708 1082.05 335.76V353.52C1082.04 355.57 1081.22 357.534 1079.77 358.984C1078.32 360.434 1076.36 361.252 1074.31 361.26H1078.49C1080.54 361.254 1082.51 360.437 1083.96 358.987C1085.41 357.537 1086.22 355.571 1086.23 353.52Z" fill="#E1F9AA"/>
    <path d="M1078.97 328.01H1063.84C1059.83 328.01 1056.58 331.26 1056.58 335.27V354C1056.58 358.009 1059.83 361.26 1063.84 361.26H1078.97C1082.98 361.26 1086.23 358.009 1086.23 354V335.27C1086.23 331.26 1082.98 328.01 1078.97 328.01Z" stroke="#485730" stroke-width="3.76" stroke-miterlimit="10"/>
    <path d="M1059.75 284.88H1031.21C1023.6 284.88 1017.43 291.049 1017.43 298.66V334.02C1017.43 341.63 1023.6 347.8 1031.21 347.8H1059.75C1067.36 347.8 1073.53 341.63 1073.53 334.02V298.66C1073.53 291.049 1067.36 284.88 1059.75 284.88Z" fill="#98C841"/>
    <path d="M1025.01 333.11V299.57C1025.02 295.679 1026.57 291.95 1029.32 289.198C1032.07 286.445 1035.8 284.893 1039.69 284.88H1032.12C1028.23 284.89 1024.5 286.442 1021.74 289.194C1018.99 291.947 1017.44 295.677 1017.43 299.57V333.11C1017.44 337.003 1018.99 340.733 1021.74 343.486C1024.5 346.238 1028.23 347.789 1032.12 347.8H1039.69C1035.8 347.787 1032.07 346.234 1029.32 343.482C1026.57 340.73 1025.02 337.001 1025.01 333.11Z" fill="#93BA3E"/>
    <path d="M1073.54 333.11V299.57C1073.53 295.677 1071.98 291.947 1069.23 289.194C1066.47 286.442 1062.74 284.89 1058.85 284.88H1054.3C1058.19 284.89 1061.92 286.442 1064.68 289.194C1067.43 291.947 1068.98 295.677 1068.99 299.57V333.11C1068.98 337.003 1067.43 340.733 1064.68 343.486C1061.92 346.238 1058.19 347.789 1054.3 347.8H1058.85C1062.74 347.789 1066.47 346.238 1069.23 343.486C1071.98 340.733 1073.53 337.003 1073.54 333.11Z" fill="#E1F9AA"/>
    <path d="M1059.75 284.88H1031.21C1023.6 284.88 1017.43 291.049 1017.43 298.66V334.02C1017.43 341.63 1023.6 347.8 1031.21 347.8H1059.75C1067.36 347.8 1073.53 341.63 1073.53 334.02V298.66C1073.53 291.049 1067.36 284.88 1059.75 284.88Z" stroke="#485730" stroke-width="3.76" stroke-miterlimit="10"/>
    <path d="M1045.93 302.03V399.99" stroke="#485730" stroke-width="3.76" stroke-linecap="round" stroke-linejoin="round"/>
    <path d="M1045.93 368.34V399.99" stroke="#485730" stroke-width="3.76" stroke-linecap="round" stroke-linejoin="round"/>
    <path d="M1028.84 328.79H1012.83C1007.89 328.79 1003.88 332.797 1003.88 337.74V357.87C1003.88 362.813 1007.89 366.82 1012.83 366.82H1028.84C1033.78 366.82 1037.79 362.813 1037.79 357.87V337.74C1037.79 332.797 1033.78 328.79 1028.84 328.79Z" fill="#C5D72B"/>
    <path d="M1010.4 357.28V338.33C1010.41 335.801 1011.41 333.378 1013.2 331.59C1014.99 329.802 1017.41 328.795 1019.94 328.79H1013.43C1010.9 328.795 1008.48 329.802 1006.69 331.589C1004.9 333.377 1003.89 335.8 1003.88 338.33V357.28C1003.89 359.808 1004.9 362.23 1006.69 364.017C1008.48 365.805 1010.9 366.812 1013.43 366.82H1019.94C1017.41 366.812 1014.99 365.804 1013.2 364.017C1011.42 362.229 1010.41 359.808 1010.4 357.28Z" fill="#B5BC20"/>
    <path d="M1028.84 328.79H1012.83C1007.89 328.79 1003.88 332.797 1003.88 337.74V357.87C1003.88 362.813 1007.89 366.82 1012.83 366.82H1028.84C1033.78 366.82 1037.79 362.813 1037.79 357.87V337.74C1037.79 332.797 1033.78 328.79 1028.84 328.79Z" stroke="#485730" stroke-width="3.76" stroke-miterlimit="10"/>
    <path d="M1045.94 369.46H1065.42C1066.84 369.455 1068.21 368.887 1069.21 367.881C1070.22 366.875 1070.78 365.512 1070.79 364.09V351.79" stroke="#485730" stroke-width="3.76" stroke-linecap="round" stroke-linejoin="round"/>
    <path d="M1045.69 378.29H1026.21C1024.79 378.287 1023.42 377.721 1022.42 376.714C1021.41 375.708 1020.84 374.343 1020.84 372.92V353.68" stroke="#485730" stroke-width="3.76" stroke-linecap="round" stroke-linejoin="round"/>
    <path d="M1234.75 284.88H1206.21C1198.6 284.88 1192.43 291.049 1192.43 298.66V334.02C1192.43 341.63 1198.6 347.8 1206.21 347.8H1234.75C1242.36 347.8 1248.53 341.63 1248.53 334.02V298.66C1248.53 291.049 1242.36 284.88 1234.75 284.88Z" fill="#98C841"/>
    <path d="M1200.01 333.11V299.57C1200.02 295.679 1201.57 291.95 1204.32 289.198C1207.07 286.445 1210.8 284.893 1214.69 284.88H1207.12C1203.23 284.89 1199.5 286.442 1196.74 289.194C1193.99 291.947 1192.44 295.677 1192.43 299.57V333.11C1192.44 337.003 1193.99 340.733 1196.74 343.486C1199.5 346.238 1203.23 347.789 1207.12 347.8H1214.69C1210.8 347.787 1207.07 346.234 1204.32 343.482C1201.57 340.73 1200.02 337.001 1200.01 333.11Z" fill="#93BA3E"/>
    <path d="M1248.54 333.11V299.57C1248.53 295.677 1246.98 291.947 1244.23 289.194C1241.47 286.442 1237.74 284.89 1233.85 284.88H1229.3C1233.19 284.89 1236.92 286.442 1239.68 289.194C1242.43 291.947 1243.98 295.677 1243.99 299.57V333.11C1243.98 337.003 1242.43 340.733 1239.68 343.486C1236.92 346.238 1233.19 347.789 1229.3 347.8H1233.85C1237.74 347.789 1241.47 346.238 1244.23 343.486C1246.98 340.733 1248.53 337.003 1248.54 333.11Z" fill="#E1F9AA"/>
    <path d="M1234.75 284.88H1206.21C1198.6 284.88 1192.43 291.049 1192.43 298.66V334.02C1192.43 341.63 1198.6 347.8 1206.21 347.8H1234.75C1242.36 347.8 1248.53 341.63 1248.53 334.02V298.66C1248.53 291.049 1242.36 284.88 1234.75 284.88Z" stroke="#485730" stroke-width="3.76" stroke-miterlimit="10"/>
    <path d="M1220.93 302.03V399.99" stroke="#485730" stroke-width="3.76" stroke-linecap="round" stroke-linejoin="round"/>
    <path d="M1220.93 368.34V399.99" stroke="#485730" stroke-width="3.76" stroke-linecap="round" stroke-linejoin="round"/>
    <path d="M1215.37 372.4C1216.09 372.747 1216.74 373.236 1217.27 373.837C1217.8 374.438 1218.2 375.14 1218.46 375.9C1218.95 377.428 1219.09 379.049 1218.87 380.64C1218.52 383.72 1216.77 386.83 1214.87 389.29C1212.28 387.03 1211.68 383.08 1211.5 381.06C1211.22 377.87 1212.66 371.92 1215.35 372.4" fill="#F56D45"/>
    <path d="M1217.9 394.37C1217.72 393.489 1217.78 392.578 1218.07 391.728C1218.36 390.878 1218.87 390.12 1219.55 389.53C1220.24 388.95 1221.03 388.514 1221.89 388.248C1222.75 387.982 1223.65 387.891 1224.55 387.98C1224.96 387.976 1225.38 388.064 1225.75 388.236C1226.13 388.409 1226.47 388.663 1226.74 388.98C1226.93 389.313 1227.04 389.693 1227.04 390.08C1227.04 390.467 1226.93 390.847 1226.74 391.18C1226.35 391.851 1225.78 392.406 1225.11 392.79C1222.86 394.2 1220.43 395.15 1217.89 394.39" fill="#F56D45"/>
    <path d="M1214.87 403.84C1214.88 403.627 1214.92 403.417 1214.97 403.21C1215.05 402.76 1215.15 402.21 1215.28 401.5C1215.57 399.597 1216.16 397.753 1217.04 396.04C1217.96 394.33 1219.31 392.891 1220.96 391.87C1221.46 391.575 1222 391.34 1222.56 391.17C1222.71 391.118 1222.86 391.078 1223.02 391.05C1223.13 391.05 1223.18 391.05 1223.19 391.05C1222.44 391.305 1221.72 391.64 1221.05 392.05C1219.45 393.084 1218.14 394.509 1217.24 396.19C1216.37 397.882 1215.76 399.696 1215.44 401.57C1215.28 402.29 1215.15 402.87 1215.05 403.27C1215.01 403.465 1214.95 403.656 1214.87 403.84Z" fill="#263238"/>
    <path d="M1214.97 377.02C1214.98 377.113 1214.98 377.207 1214.97 377.3C1214.97 377.5 1214.97 377.77 1215.02 378.09C1215.02 378.78 1215.1 379.78 1215.14 381.01C1215.22 383.48 1215.28 386.89 1215.26 390.65C1215.24 394.41 1215.16 397.83 1215.05 400.29C1215.05 401.53 1214.95 402.52 1214.91 403.21C1214.91 403.54 1214.91 403.8 1214.86 404.01C1214.87 404.1 1214.87 404.19 1214.86 404.28C1214.86 404.28 1214.86 404.19 1214.86 404C1214.86 403.81 1214.86 403.54 1214.86 403.21C1214.86 402.49 1214.86 401.5 1214.94 400.29C1215 397.82 1215.06 394.42 1215.08 390.65C1215.1 386.88 1215.08 383.48 1215.02 381.01C1215.02 379.8 1215.02 378.81 1215.02 378.09V377.3C1214.99 377.209 1214.97 377.115 1214.97 377.02Z" fill="#263238"/>
    <path d="M1213.71 396.24C1213.39 394.375 1212.64 392.612 1211.51 391.095C1210.38 389.579 1208.91 388.353 1207.21 387.52C1206.35 387.11 1205.21 386.84 1204.5 387.52C1203.79 388.2 1203.95 389.33 1204.3 390.22C1205.06 392.078 1206.35 393.67 1208.02 394.794C1209.68 395.919 1211.64 396.526 1213.65 396.54" fill="#F56D45"/>
    <path d="M1207.63 390.44C1207.82 390.508 1208 390.588 1208.18 390.68C1208.36 390.77 1208.57 390.87 1208.8 391.01C1209.03 391.15 1209.32 391.3 1209.6 391.51C1209.91 391.721 1210.21 391.948 1210.5 392.19C1210.85 392.463 1211.18 392.757 1211.5 393.07C1212.2 393.781 1212.81 394.57 1213.34 395.42C1213.84 396.279 1214.25 397.196 1214.54 398.15C1214.66 398.59 1214.78 399.01 1214.85 399.41C1214.92 399.783 1214.97 400.161 1215 400.54C1215.02 400.85 1215.02 401.16 1215 401.47C1215.02 401.703 1215.02 401.937 1215 402.17C1215 402.371 1214.98 402.572 1214.94 402.77C1214.89 402.77 1214.94 401.91 1214.82 400.55C1214.78 400.18 1214.72 399.812 1214.64 399.45C1214.56 399.031 1214.45 398.617 1214.32 398.21C1214.02 397.278 1213.61 396.383 1213.12 395.54C1212.61 394.702 1212.01 393.921 1211.34 393.21C1211.02 392.89 1210.71 392.59 1210.4 392.33C1210.09 392.07 1209.8 391.85 1209.52 391.64C1208.39 390.84 1207.61 390.49 1207.63 390.44Z" fill="#263238"/>
</svg>
